<svg xmlns="http://www.w3.org/2000/svg" version="1.1" xmlns:xlink="http://www.w3.org/1999/xlink" xmlns:svgjs="http://svgjs.com/svgjs" width="163" height="225"><svg width="163" height="225" viewBox="0 0 163 225" fill="none" xmlns="http://www.w3.org/2000/svg"><path d="m9 99 22.697-10 44.778-8 47.294 8 29.684 10L161 120l-5.031 28-49.306 79-3.019 48.5-27.169 6.5L61.5 270.5 54.337 231l-26.665-48.5-25.172-47L9 99Z" fill="#000"></path><path d="M63 91.878h40v185H63v-185Z" fill="#000"></path><path d="M73 275.878h21v3H73v-3Zm-69-168h157v28H4v-28Z" fill="#000"></path><path d="M8 98.878h147v54H8v-54Z" fill="#000"></path><path d="M6 134.878h6v5H6v-5Zm147 0h4v6h-4v-6Zm0-30h4v6h-4v-6Zm-137-12h131v16H16v-16Zm39 56h54v89H55v-89Z" fill="#000"></path><path d="M14 148.878h135v14H14v-14Z" fill="#000"></path><path d="M147 150.878h3v4h-3v-4Zm-134-1h3v4h-3v-4Zm6 12h126v8H19v-8Zm4 8h117v7H23v-7Zm4 7h109v5H27v-5Zm4 5h102v3H31v-3Zm12 3h78v23H43v-23Zm8 23h65v6H51v-6Z" fill="#000"></path><path d="M73.676 117.452a41.91 41.91 0 0 1 2.308-1.156c.77-.38 1.564-.696 2.35-1.037.789-.33 1.592-.619 2.388-.931l.388-.152.402.171c.844.355 1.68.725 2.517 1.093.82.411 1.664.761 2.463 1.22l2.423 1.319c.777.512 1.583.955 2.337 1.525l-.023.056h-.001l-.023.057-.154-.063-9.96-4.07-9.469 3.372-.143.052-.042-.114c.725-.508 1.493-.893 2.24-1.342Zm26.391-14.36v.202s-.429 5.422-.53 5.144c-.101-.279-2.023-3.471-2.023-3.471l2.553-1.875Zm-1.823 9.982c3.734-.829 5.701-6.537 10.566-4.712 0 0-5.625-8.665-8.514-7.145-1.852.975-5.954 3.888-8.66 5.852l-6.64 3.801 4.633-1.287c1.35 1.336 4.865 4.325 8.615 3.491Zm-36.24-8.766 2.61 1.875s-1.95 3.192-2.05 3.471c-.1.279-.56-5.143-.56-5.143v-.203Zm.873 8.766c3.533.786 6.857-1.821 8.358-3.243l4.52 1.581-3.856-2.573c-1.201-.891-8.43-6.23-11.074-7.622-2.888-1.52-8.513 7.145-8.513 7.145 4.865-1.825 6.832 3.883 10.565 4.712Zm87.055-3.952c-12.973-11.857-32.227 2.432-32.227 2.432s-5.397-6.334-4.586-12.617c.809-6.283 31.618-9.577 41.886 8.022 16.222 27.803-26.018 78.17-26.018 78.17 28.578-42.868 27.639-69.888 20.945-76.007Zm-31.616 79.937a167.239 167.239 0 0 0-3.454 7.669c-.472 1.214-.926 2.376-1.355 3.482-.393 1.12-.763 2.183-1.112 3.182-.614 2.023-1.139 3.799-1.431 5.291-.36 1.483-.531 2.669-.659 3.478l-.201 1.243.069-1.256c.053-.818.064-2.032.325-3.547.177-1.531.563-3.357 1.025-5.454l.871-3.305 1.163-3.607c.877-2.488 1.891-5.164 3.106-7.929a169.166 169.166 0 0 1 3.993-8.608c1.46-2.946 2.982-5.977 4.597-9.017 1.599-3.042 3.222-6.134 4.847-9.224 3.25-6.165 6.362-12.389 8.784-18.399a79.755 79.755 0 0 0 2.946-8.826c.291-1.438.679-2.832.828-4.204.088-.683.219-1.356.272-2.018l.108-1.955c.065-.642-.005-1.263-.027-1.875-.045-.607-.023-1.214-.114-1.787-.208-1.14-.27-2.266-.628-3.248l-.424-1.455c-.145-.466-.376-.878-.55-1.297a511.69 511.69 0 0 0-.534-1.193c-.172-.379-.417-.691-.607-1.016-.412-.628-.734-1.227-1.089-1.703a889.6 889.6 0 0 1-.955-1.17l-.795-.973.892.886 1.072 1.064c.407.432.792 1.011 1.264 1.629.22.317.501.628.709 1.002l.644 1.181c.212.418.485.831.674 1.301l.558 1.474c.451 1.004.611 2.157.921 3.347.146.597.158 1.226.241 1.864.058.639.167 1.296.137 1.966.115 2.692-.26 5.583-.835 8.587-.672 2.978-1.543 6.083-2.715 9.182-1.169 3.097-2.461 6.266-3.96 9.384-1.467 3.137-3.057 6.265-4.664 9.378l-9.689 18.086c-1.51 2.895-2.957 5.696-4.248 8.39Zm-64.988 23.102c-.129-.809-.3-1.995-.66-3.478-.292-1.492-.817-3.268-1.431-5.291l-1.11-3.182c-.432-1.106-.885-2.268-1.357-3.482a168.262 168.262 0 0 0-3.453-7.669c-1.292-2.694-2.739-5.495-4.25-8.39l-9.688-18.086c-1.607-3.113-3.196-6.241-4.663-9.378-1.5-3.118-2.79-6.287-3.961-9.384-1.172-3.099-2.043-6.204-2.714-9.182-.576-3.004-.95-5.895-.836-8.587-.029-.67.079-1.327.137-1.966.084-.638.094-1.267.24-1.864.31-1.19.471-2.343.922-3.347l.559-1.474c.188-.47.461-.883.674-1.301l.644-1.181c.208-.374.488-.685.709-1.002.472-.618.856-1.197 1.264-1.629l1.072-1.064.892-.886-.795.973-.955 1.17c-.356.476-.677 1.075-1.09 1.703-.19.325-.434.637-.607 1.016l-.534 1.193c-.173.419-.405.831-.55 1.297l-.424 1.455c-.356.982-.42 2.108-.628 3.248-.09.573-.069 1.18-.114 1.787-.021.612-.092 1.233-.026 1.875l.108 1.955c.053.662.183 1.335.272 2.018.15 1.372.536 2.766.828 4.204a79.705 79.705 0 0 0 2.947 8.826c2.42 6.01 5.532 12.234 8.783 18.399l4.846 9.224a355.648 355.648 0 0 1 4.598 9.017 168.958 168.958 0 0 1 3.992 8.608 113.066 113.066 0 0 1 3.107 7.929l1.163 3.607.87 3.305c.463 2.097.85 3.923 1.025 5.454.262 1.515.273 2.729.326 3.547l.069 1.256-.2-1.243ZM8.626 106.959c10.7-18.207 41.156-14.775 41.967-8.492.171 1.33.06 2.681-.22 3.988l-7.001 7.436c-5.664-3.384-19.571-10-29.671-.769-6.695 6.119-7.634 33.139 20.944 76.007 0 0-42.325-50.418-26.019-78.17ZM61.82 93.846c2.947 1.201 13.356 5.22 20.665 5.22.93 0 1.793-.066 2.563-.197 7.494-1.272 12.683-2.984 14.619-3.681L122.56 122.5l-18.235 7.294c-2.836-1.244-17.08-7.374-22.411-7.374a6.06 6.06 0 0 0-.336.008c-2.995.148-8.936 2.039-14.682 3.868-4.48 1.426-9.11 2.9-10.53 2.9-1.819 0-10.272-5.271-17.824-10.627l23.277-24.723Zm30.927 56.623.318-18.954 3.624.413-3.942 18.541ZM67.534 131.99l3.608-.538 1.085 19.625-4.693-19.087Zm37.696-1.036c-5.106 25.426-11.718 53.436-13.908 55.442-5.51 3.229-18.555 1.538-20.102-.481-1.487-2.119-10.35-33.297-15.969-53.813l1.574.397c1.815 6.11 11.22 37.591 13.186 40.427.226.327.56.624.977.893.352-.494.72-.97 1.076-1.458.124-.159.256-.309.382-.466a55.108 55.108 0 0 1 2.42-2.821c1.385-1.494 3.509-2.897 5.234-4.245l.002.434c-1.822 1.585-3.582 3.243-5.237 5.028a52.857 52.857 0 0 0-2.801 3.286c-.43.59-.884 1.155-1.298 1.765-.054.079-.116.171-.181.271a50.3 50.3 0 0 0-1.437 2.371c.717-.25 1.81-1.308 2.48-1.614.673-.303 1.308-.65 1.963-.972.203-.107.398-.225.6-.336 3.314.814 7.792 1.002 11.096.72a25.057 25.057 0 0 0 2.831-.391c.337.282.67.566 1.018.837.55.4 1.076.821 1.646 1.205.566.387 1.14.768 1.764 1.109a17.808 17.808 0 0 0-.553-1.545c-.055-.138-.108-.276-.164-.413-.258-.636-.56-1.238-.838-1.859a45.413 45.413 0 0 0-1.924-3.518 54.607 54.607 0 0 0-2.177-3.314c-.613-.866-1.543-1.162-2.199-1.994l.104-16.762.543 15.622c-.102.215.939 1.052 1.552 1.918a54.297 54.297 0 0 1 2.177 3.314c.42.7.821 1.416 1.21 2.142.244.454.488.908.714 1.376.12.269.246.535.37.802.959-.516 1.622-1.152 1.975-1.911 5.283-11.345 10.945-39.937 11.184-41.148l-.538-.257 1.248-.042c.02-.094.02-.092 0 .001Zm-6.99 44.298c.995-3.965 2.016-8.31 3.005-12.681a78.88 78.88 0 0 0 7.919-2.202 131.25 131.25 0 0 1-.76 12.031 72.525 72.525 0 0 1-10.164 2.852Zm-5.003 16.05c1.141-1.998 2.692-7.091 4.359-13.522a77.541 77.541 0 0 0 10.204-2.692c-.086 4.017-.397 8.556-.945 12.588-4.389 1.601-8.942 2.852-13.618 3.626Zm17.292-45.845a144.733 144.733 0 0 1-.678 12.058 77.012 77.012 0 0 1-8.007 2.385c.985-4.415 1.922-8.777 2.751-12.715a84.021 84.021 0 0 0 5.934-1.728Zm.75-2.716a78.947 78.947 0 0 1-6.144 1.868c1.315-6.306 2.28-11.158 2.598-12.767 1.4-.386 2.789-.801 4.161-1.255a157.56 157.56 0 0 1-.615 12.154Zm-64.772-13.792a87.19 87.19 0 0 0 5.675 1.856c.176.661 1.55 5.806 3.464 12.848-3.243-.912-5.6-1.759-6.85-2.238a176.799 176.799 0 0 1-2.289-12.466Zm2.275 15.069a85.576 85.576 0 0 0 7.613 2.389c1.083 3.97 2.295 8.379 3.537 12.843-4.253-1.076-7.342-2.177-8.842-2.755a159.837 159.837 0 0 1-2.308-12.477Zm2.276 15.07c1.952.726 5.273 1.846 9.634 2.886 1.236 4.416 2.482 8.807 3.643 12.799-5.322-1.175-9.181-2.551-10.933-3.233a143.8 143.8 0 0 1-2.344-12.452Zm2.273 15.07c2.263.845 6.364 2.193 11.786 3.281 2.01 6.813 3.674 12.048 4.443 13.542-6.641-1.21-11.546-3.018-13.704-3.904-1.096-4.234-1.968-8.942-2.525-12.919Zm29.409 32.063c-12.228 0-21.674-3.277-24.746-4.487-1.05-3.973-1.876-8.446-2.392-12.219 4.083 1.533 14.139 5.01 27.103 5.01h.003c8.225 0 16.198-1.574 23.726-4.149-.099 3.821-.423 8.104-.982 11.852-7.203 2.649-14.84 3.993-22.712 3.993Zm.04 15.227h-.003c-10.808 0-19.167-2.966-22.26-4.236-1.196-3.999-2.112-8.9-2.645-12.909 3.85 1.453 13.013 4.35 24.868 4.35 7.714 0 15.216-1.246 22.328-3.705-.13 4.047-.539 8.713-1.238 12.505-6.712 2.49-13.79 3.995-21.05 3.995Zm.047 14.173c-9.784 0-17.284-2.555-20.105-3.676-1.195-3.722-2.086-8.504-2.582-12.367 3.607 1.371 11.885 4.191 22.637 4.191h.004c7.199 0 14.226-1.274 20.917-3.616-.16 4.257-.65 8.624-1.388 11.967a55.726 55.726 0 0 1-19.483 3.501Zm17.682 11.533a50.693 50.693 0 0 1-17.623 3.168c-8.298.002-14.697-2.059-17.515-3.154-1.435-3.329-2.458-8.534-2.966-12.674 3.354 1.285 10.762 3.664 20.42 3.664h.002c6.68 0 13.23-1.177 19.498-3.402-.212 4.599-.864 9.331-1.816 12.398Zm-2.098 15.145c-5.041 1.808-10.23 2.725-15.454 2.725-6.471 0-11.585-1.425-14.417-2.445-2.004-2.108-3.326-8.343-3.875-13.066 3.093 1.194 9.645 3.243 18.221 3.242a53.1 53.1 0 0 0 18.063-3.171c-.295 5.154-1.234 10.498-2.538 12.715ZM31.798 124.05c.013.801.085 1.629.168 2.478.182 1.698.494 3.476.909 5.3.388 1.831.968 3.685 1.537 5.574.587 1.886 1.27 3.781 1.986 5.666.71 1.89 1.44 3.775 2.207 5.619l2.226 5.436c1.451 3.533 2.775 6.862 3.754 9.783.5 1.455.915 2.806 1.235 4.019.342 1.205.566 2.279.734 3.161.175.882.258 1.584.306 2.063l.081.73-.21-.704c-.125-.461-.354-1.125-.645-1.964a61.359 61.359 0 0 0-1.148-2.988c-.462-1.143-1.034-2.416-1.653-3.804l-4.416-9.438c-.794-1.74-1.65-3.526-2.43-5.386-.798-1.85-1.57-3.753-2.315-5.671-1.417-3.862-2.678-7.819-3.342-11.67-.374-1.914-.551-3.806-.621-5.6a27.399 27.399 0 0 1 .253-5.057c.077-.779.277-1.514.41-2.212.166-.695.393-1.338.567-1.945.43-1.196.87-2.208 1.324-3.001.394-.82.837-1.366 1.096-1.771l.414-.607-.3.671c-.187.438-.509 1.076-.776 1.916-.32.815-.583 1.855-.864 3.037a27.5 27.5 0 0 0-.487 4.043c-.024.745-.055 1.518 0 2.322Zm64.555 152.086c-3.4 1.499-8.173 2.357-13.095 2.357-5.301 0-10.128-1.003-12.596-2.617-2.047-1.338-3.279-6.991-3.743-11.293 2.82 1.101 8.531 2.875 16.038 2.875 5.623 0 11.201-1.004 16.61-2.987-.388 5.391-1.62 10.963-3.214 11.665Zm35.482-154.408a27.662 27.662 0 0 0-.487-4.043c-.282-1.182-.544-2.222-.865-3.037-.267-.84-.589-1.478-.776-1.916l-.299-.671.413.607c.258.405.702.951 1.096 1.771.455.793.893 1.805 1.324 3.001.175.607.402 1.25.567 1.945.133.698.333 1.433.411 2.212.228 1.554.326 3.261.252 5.057-.07 1.794-.247 3.686-.62 5.6-.665 3.851-1.925 7.808-3.341 11.67a163.256 163.256 0 0 1-2.318 5.671c-.777 1.86-1.635 3.646-2.428 5.386l-4.417 9.438c-.619 1.388-1.191 2.661-1.653 3.804a61.93 61.93 0 0 0-1.149 2.988c-.291.839-.52 1.503-.643 1.964l-.211.704.081-.73c.047-.479.13-1.181.305-2.063.17-.882.394-1.956.735-3.161a56.66 56.66 0 0 1 1.236-4.019c.979-2.921 2.303-6.25 3.753-9.783l2.226-5.436a169.363 169.363 0 0 0 2.207-5.619c.716-1.885 1.399-3.78 1.987-5.666.569-1.888 1.149-3.743 1.537-5.573.414-1.825.727-3.603.909-5.301.082-.849.155-1.677.168-2.478.054-.804.024-1.577 0-2.322Zm15.03-29.328c-16.147-8.177-33.074-2.46-40.142.68l-5.08.68-1.232-1.47s-4.072 1.616-9.498 2.907l-10.162 1.36c-7.87-.645-18.647-5.225-18.763-5.274l-.782-.335-2.404 2.554-2.446-.364c-5.817-2.87-23.19-9.834-40.223-.738-24.699 13.191-15.776 48.34-7.6 63.238 14.212 25.898 55.332 72.966 48.036 116.442 0 0 1.782 1.636 4.138 3.351l.015.155.212.009c.338.244.688.488 1.045.728l-.007.011c.018.012.174.114.444.279 1.33.869 2.74 1.663 4.062 2.163 4.104 1.927 10.607 4.292 17.813 4.292 4.942 0 10.212-1.114 15.264-4.241 4.289-.824 9.443-6.286 9.443-6.286-8.239-43.307 31.849-91.256 45.495-117.458 7.85-15.072 17.351-50.032-7.628-62.683ZM125 60.878c0 8.284-19.923 15-44.5 15s-44.5-6.716-44.5-15c0-8.284 19.923-15 44.5-15s44.5 6.716 44.5 15Z" fill="#ff5252"></path><path d="M61 .978c-10.3 1.2-15.8 2.6-20.7 5.5l-4.3 2.5v26.9c0 19.5-.3 27-1.1 27-2.2 0-17.3-8.2-22.7-12.3-10.6-8.1-9.6-8-8.8-1.2 2 17.5 18.1 35.5 39.6 44.1 13 5.3 20.5 6.7 37 6.8 17.1.1 25.7-1.3 38.2-6.4 10.8-4.4 17.7-8.9 25.5-16.6 8.6-8.5 14.1-18.6 15-28l.6-5.9-3.4 2.8c-8.7 7-25.3 16.7-28.6 16.7-1 0-1.3-6.4-1.5-27.3l-.3-27.2-5.6-2.8c-9.5-4.8-37.8-7-58.9-4.6Zm35 49.9c20.3 1.9 28.5 4.9 28.5 10.6 0 2.6-.5 3-6 4.6-21.8 6.7-53.2 6.7-75 .1-5.2-1.6-6-2.2-6.3-4.6-.3-2.1.4-3.1 3-4.7 9.3-5.7 31.7-8.1 55.8-6Z" fill="#000"></path></svg><style>@media (prefers-color-scheme: light) { :root { filter: none; } }
</style></svg>