<?xml version="1.0" standalone="no"?>
<!DOCTYPE svg PUBLIC "-//W3C//DTD SVG 20010904//EN"
 "http://www.w3.org/TR/2001/REC-SVG-20010904/DTD/svg10.dtd">
<svg version="1.0" xmlns="http://www.w3.org/2000/svg"
 width="331.000000pt" height="331.000000pt" viewBox="0 0 331.000000 331.000000"
 preserveAspectRatio="xMidYMid meet">
<metadata>
Created by potrace 1.14, written by Peter Selinger 2001-2017
</metadata>
<g transform="translate(0.000000,331.000000) scale(0.100000,-0.100000)"
fill="#000000" stroke="none">
<path d="M1429 3306 c-2 -2 -33 -6 -69 -10 -36 -3 -75 -8 -86 -10 -12 -2 -37
-7 -57 -10 -66 -10 -194 -64 -229 -95 -4 -3 -8 -170 -8 -371 -1 -201 -4 -377
-7 -392 -3 -16 -12 -28 -21 -28 -37 0 -268 132 -369 211 -35 27 -69 49 -78 49
-8 0 -15 -1 -15 -2 0 -2 7 -41 15 -87 19 -108 77 -229 155 -321 60 -73 184
-183 226 -202 26 -12 31 -24 12 -25 -152 -8 -313 -107 -383 -234 -85 -156 -83
-401 4 -633 27 -72 81 -180 92 -184 5 -2 9 -8 9 -13 0 -9 29 -56 202 -319 133
-203 220 -354 292 -502 l61 -128 488 0 488 0 21 53 c63 152 185 371 402 720
65 104 135 223 156 265 127 257 155 541 69 722 -27 59 -127 170 -152 170 -6 0
-18 6 -26 13 -29 25 -106 48 -210 65 l-45 7 46 30 c121 79 257 229 316 350 36
72 50 122 58 195 3 30 7 61 10 69 2 8 -10 2 -28 -13 -99 -80 -335 -225 -408
-251 -36 -13 -40 -12 -45 4 -6 20 -13 306 -15 603 l-2 186 -52 25 c-84 40
-169 62 -321 83 -38 5 -491 14 -496 10z"/>
</g>
</svg>
